<?xml version="1.0" encoding="UTF-8" standalone="no"?>
<!-- Created with Inkscape (http://www.inkscape.org/) -->
<svg xmlns:rdf="http://www.w3.org/1999/02/22-rdf-syntax-ns#" xmlns="http://www.w3.org/2000/svg" xmlns:cc="http://creativecommons.org/ns#" xmlns:xlink="http://www.w3.org/1999/xlink" xmlns:dc="http://purl.org/dc/elements/1.1/" xmlns:svg="http://www.w3.org/2000/svg" xmlns:inkscape="http://www.inkscape.org/namespaces/inkscape" xmlns:sodipodi="http://sodipodi.sourceforge.net/DTD/sodipodi-0.dtd" xmlns:ns1="http://sozi.baierouge.fr" id="svg5390" viewBox="0 0 576.5 617.83" version="1.1" inkscape:version="0.91 r13725">
  <defs id="defs5392">
    <linearGradient id="linearGradient6673">
      <stop id="stop6675" style="stop-color:#ffffff" offset="0"/>
      <stop id="stop6677" style="stop-color:#ffffff;stop-opacity:0" offset="1"/>
    </linearGradient>
    <filter id="filter6461" color-interpolation-filters="sRGB">
      <feGaussianBlur id="feGaussianBlur6463" stdDeviation="5.4682202"/>
    </filter>
    <filter id="filter6583" color-interpolation-filters="sRGB">
      <feGaussianBlur id="feGaussianBlur6585" stdDeviation="9.7390496"/>
    </filter>
    <linearGradient id="linearGradient6907" y2="376.29" xlink:href="#linearGradient6673" gradientUnits="userSpaceOnUse" x2="142.55" gradientTransform="matrix(-1.3953 0 0 .81061 542.49 137.22)" y1="388.08" x1="52.985"/>
    <linearGradient id="linearGradient6914" y2="376.29" xlink:href="#linearGradient6673" gradientUnits="userSpaceOnUse" x2="142.55" gradientTransform="matrix(1.3953 0 0 .95565 13.77 34.328)" y1="388.08" x1="52.985"/>
    <linearGradient id="linearGradient6945" y2="-55.596" gradientUnits="userSpaceOnUse" x2="1290" y1="-6.5461" x1="1299.7">
      <stop id="stop6941" style="stop-color:#ff00ff" offset="0"/>
      <stop id="stop6943" style="stop-color:#ff00ff;stop-opacity:0" offset="1"/>
    </linearGradient>
    <linearGradient id="linearGradient6955" y2="352.95" gradientUnits="userSpaceOnUse" x2="284.9" gradientTransform="matrix(.96060 0 0 .93707 8.4893 35.177)" y1="532.09" x1="299.05">
      <stop id="stop6951" style="stop-color:#ff00ff" offset="0"/>
      <stop id="stop6953" style="stop-color:#ff00ff;stop-opacity:0" offset="1"/>
    </linearGradient>
    <linearGradient id="linearGradient6963" y2="187.96" gradientUnits="userSpaceOnUse" x2="336.76" gradientTransform="matrix(1.086 0 0 .95496 -36.718 24.973)" y1="423.66" x1="303.76">
      <stop id="stop6959" style="stop-color:#800080" offset="0"/>
      <stop id="stop6961" style="stop-color:#800080;stop-opacity:0" offset="1"/>
    </linearGradient>
    <filter id="filter6989" color-interpolation-filters="sRGB">
      <feGaussianBlur id="feGaussianBlur6991" stdDeviation="10.397369"/>
    </filter>
    <linearGradient id="linearGradient6999" y2="102.34" gradientUnits="userSpaceOnUse" x2="-138.65" y1="198.59" x1="-121.88">
      <stop id="stop6995" style="stop-color:#800080" offset="0"/>
      <stop id="stop6997" style="stop-color:#ff00ff;stop-opacity:0" offset="1"/>
    </linearGradient>
    <linearGradient id="linearGradient7017" y2="297.47" gradientUnits="userSpaceOnUse" x2="261.48" gradientTransform="matrix(1.0277 0 0 .91956 37.006 40.641)" y1="578.86" x1="272.13">
      <stop id="stop7013" style="stop-color:#800080" offset="0"/>
      <stop id="stop7015" style="stop-color:#800080;stop-opacity:0" offset="1"/>
    </linearGradient>
    <linearGradient id="linearGradient7025" y2="376.29" xlink:href="#linearGradient6673" gradientUnits="userSpaceOnUse" x2="142.55" gradientTransform="matrix(.50141 -1.302 .89181 .34343 -119.17 515.19)" y1="388.08" x1="52.985"/>
    <filter id="filter7031" color-interpolation-filters="sRGB">
      <feGaussianBlur id="feGaussianBlur7033" stdDeviation="5.2566215"/>
    </filter>
    <linearGradient id="linearGradient7053" y2="418.95" gradientUnits="userSpaceOnUse" x2="357.97" y1="520.3" x1="395.68">
      <stop id="stop7049" style="stop-color:#ff00ff" offset="0"/>
      <stop id="stop7051" style="stop-color:#ff00ff;stop-opacity:0" offset="1"/>
    </linearGradient>
    <linearGradient id="linearGradient7182" y2="414.01" gradientUnits="userSpaceOnUse" x2="175.25" gradientTransform="matrix(.31741 -.39851 .77038 .34262 -76.377 441.08)" y1="226.67" x1="-80.929">
      <stop id="stop7062" style="stop-color:#ffffff" offset="0"/>
      <stop id="stop7064" style="stop-color:#ffffff;stop-opacity:0" offset="1"/>
    </linearGradient>
    <filter id="filter7216" height="1.4748" width="1.3253" color-interpolation-filters="sRGB" y="-.23739" x="-.16266">
      <feGaussianBlur id="feGaussianBlur7218" stdDeviation="25.878571"/>
    </filter>
  </defs>
  <g id="layer1" transform="translate(-27.989 -10.897)">
    <g id="g7220">
      <path id="path7202" style="opacity:.83186;filter:url(#filter7216);fill:#800080" d="m433.69 449.3a190.92 130.81 0 1 1 -381.84 0 190.92 130.81 0 1 1 381.84 0z" transform="matrix(.94585 0 0 .73544 51.475 150.53)"/>
      <path id="path6861" style="opacity:.61504;filter:url(#filter7031);fill:#000000" d="m495.22 25.617s-201.72 66.084-145.38 236c104.6 187.03 10.65 356.59-177.18 287.93-123.39-68.65-135.49-227.53-77.237-311.53 99.947-165.2 399.8-212.4 399.8-212.4z" transform="matrix(1.0537 0 0 .90387 42.023 56.369)"/>
      <path id="path6859" style="opacity:.51327;filter:url(#filter6583);fill:#000000" d="m495.22 25.617s-201.72 66.084-145.38 236c104.6 187.03 10.65 356.59-177.18 287.93-123.39-68.65-135.49-227.53-77.237-311.53 99.947-165.2 399.8-212.4 399.8-212.4z" transform="matrix(.96753 0 0 .86087 66.705 63.177)"/>
      <path id="path6869" style="fill:url(#linearGradient6945)" d="m1283.5-53.255s11.213 3.5357 8.0812 12.627c-5.8143 10.006-0.5918 19.078 9.849 15.405 6.8585-3.6725 7.5311-12.174 4.2932-16.668-5.5559-8.8388-22.223-11.364-22.223-11.364z" transform="matrix(-15.141 0 0 16.771 19940 953)"/>
      <path id="path6875" style="opacity:.51327;fill:#ff00ff" d="m495.22 25.617s-201.72 66.084-145.38 236c104.6 187.03 10.65 356.59-177.18 287.93-123.39-68.65-135.49-227.53-77.237-311.53 99.947-165.2 399.8-212.4 399.8-212.4z" transform="matrix(1.0278 0 0 .93324 40.299 22.946)"/>
      <path id="path6857" style="opacity:.51327;fill:url(#linearGradient6955)" d="m498.46 69.853c-65.424 34-121.03 97.089-110.23 169.12 9.4279 52.211 51.753 95.087 54.591 149.37 10.594 57.247-8.168 123.08-64.377 152.9-50.62 26.48-117.2 20.44-169.01 0.66-110.87-54.29-145.24-201.92-69.34-293.27 67.65-85.17 178.19-129.16 284.05-161.87 25.367-6.652 52.052-12.878 78.598-19.138l-3.0324 1.5842-1.2521 0.65082z"/>
      <path id="path6855" style="opacity:.51327;fill:url(#linearGradient6963)" d="m546.03 54.707s-207.76 61.211-149.73 218.6c107.73 173.23 10.965 330.29-182.49 266.69-127.09-63.58-139.55-210.75-79.56-288.55 102.95-153.02 411.78-196.74 411.78-196.74z"/>
      <path id="path6853" style="opacity:.27708;filter:url(#filter6989);fill:#ffffff" d="m427.11 95.45c-44.381 29.031-82.103 82.901-74.772 144.4 6.3955 44.581 35.107 81.192 37.032 127.54 7.1865 48.882-5.5408 105.1-43.671 130.55-34.344 22.611-79.513 17.461-114.65 0.56653-75.21-46.35-98.53-172.41-47.04-250.41 45.89-72.72 120.88-110.28 192.69-138.22 17.208-5.68 35.31-10.996 53.318-16.341l-2.0571 1.3526-0.84936 0.55574z"/>
      <path id="path6851" style="opacity:.33386;filter:url(#filter6461);fill:url(#linearGradient6999)" d="m-5.2464 12.001s-97.08 30.612-69.968 109.32c50.341 86.635 5.1238 165.18-85.273 133.38-59.381-31.797-65.205-105.4-37.171-144.31 48.11-76.524 192.41-98.389 192.41-98.389z" transform="matrix(2.2464 0 0 1.9591 568.45 36.96)"/>
      <path id="path6847" style="opacity:.80531;fill:url(#linearGradient7017)" d="m545.97 64.197s-207.31 60.768-149.41 217.02c107.49 171.98 10.93 327.9-182.11 264.76-126.8-63.12-139.24-209.23-79.37-286.46 102.72-151.92 410.89-195.32 410.89-195.32z"/>
      <path id="path6865" style="opacity:.51327;fill:url(#linearGradient6914)" d="m212.43 216.31c16.483 23.196-0.99382 55.826 3.0123 83.481 1.2874 69.45 42.124 130.19 30.544 201.92-12.379 27.338-41.086 18.67-59.367 8.6923-61.549-29.353-93.204-143.05-55.266-217.66 18.25-38.359 47.296-68.467 80.363-77.404l0.70824 0.97241z"/>
      <path id="path6871" style="opacity:.51327;fill:url(#linearGradient6907)" d="m343.82 291.59c-16.483 19.676 0.99382 47.353-3.0123 70.81-1.2874 58.909-42.124 110.43-30.544 171.28 12.379 23.189 41.086 15.837 59.367 7.373 61.549-24.898 93.204-121.34 55.266-184.63-18.25-32.537-47.296-58.076-80.363-65.656l-0.70824 0.82482z"/>
      <path id="path7023" style="opacity:.51327;fill:url(#linearGradient7025)" d="m122.05 395.2c27.57-7.0455 51.74 20.99 78.986 27.189 65.273 23.757 136.63 7.4769 199.41 44.062 21.063 21.377 2.6579 45.051-13.223 58.525-49.511 46.889-166.99 35.569-222.98-26.648-29.238-30.816-46.897-68.742-43.353-102.81l1.162-0.31147z"/>
      <path id="path7045" style="opacity:.80531;fill:url(#linearGradient7053)" d="m545.97 64.197s-207.31 60.768-149.41 217.02c107.49 171.98 10.93 327.9-182.11 264.76-126.8-63.12-139.24-209.23-79.37-286.46 102.72-151.92 410.89-195.32 410.89-195.32z"/>
      <path id="path7055" style="opacity:.80531;fill:url(#linearGradient7182)" d="m114.29 341.57c-7.1986 36.156-0.58549 76.253 21.471 116.1 16.173 29.525 50.584 59.374 95.586 77.573 5.7465 3.2932 11.751 1.1986 14.358-1.2035 42.211-23.037 66.249-60.101 54.792-102.66-3.5818-12.656-11.594-25.61-22.467-38.006-45.527-0.71193-97.227-22.888-125.55-50.963-12.456-8.136-32.863-8.6293-38.189-0.8448z"/>
    </g>
  </g>
  <metadata>
    <rdf:RDF>
      <cc:Work>
        <dc:format>image/svg+xml</dc:format>
        <dc:type rdf:resource="http://purl.org/dc/dcmitype/StillImage"/>
        <cc:license rdf:resource="http://creativecommons.org/licenses/publicdomain/"/>
        <dc:publisher>
          <cc:Agent rdf:about="http://openclipart.org/">
            <dc:title>Openclipart</dc:title>
          </cc:Agent>
        </dc:publisher>
        <dc:title>slime drop 2</dc:title>
        <dc:date>2010-09-28T00:08:02</dc:date>
        <dc:description>Different colored drops.</dc:description>
        <dc:source>https://openclipart.org/detail/87565/slime-drop-2-by-inky2010</dc:source>
        <dc:creator>
          <cc:Agent>
            <dc:title>inky2010</dc:title>
          </cc:Agent>
        </dc:creator>
        <dc:subject>
          <rdf:Bag>
            <rdf:li>Blood</rdf:li>
            <rdf:li>Drop</rdf:li>
            <rdf:li>Inky2010</rdf:li>
            <rdf:li>Slime</rdf:li>
            <rdf:li>drops</rdf:li>
            <rdf:li>free</rdf:li>
            <rdf:li>gloss</rdf:li>
            <rdf:li>glossy</rdf:li>
            <rdf:li>icon</rdf:li>
            <rdf:li>inkscape</rdf:li>
            <rdf:li>photorealistic</rdf:li>
            <rdf:li>water</rdf:li>
          </rdf:Bag>
        </dc:subject>
      </cc:Work>
      <cc:License rdf:about="http://creativecommons.org/licenses/publicdomain/">
        <cc:permits rdf:resource="http://creativecommons.org/ns#Reproduction"/>
        <cc:permits rdf:resource="http://creativecommons.org/ns#Distribution"/>
        <cc:permits rdf:resource="http://creativecommons.org/ns#DerivativeWorks"/>
      </cc:License>
    </rdf:RDF>
  </metadata>
</svg>
